<svg xmlns="http://www.w3.org/2000/svg" viewBox="0 0 512 512" width="200" height="200">
  <circle cx="256" cy="256" r="180" fill="none" stroke="black" stroke-width="20" stroke-linecap="round" stroke-dasharray="10 20"/>
  <path d="M256 128a128 128 0 1 0 128 128 128 128 0 0 0-128-128zm0 216a88 88 0 1 1 88-88 88 88 0 0 1-88 88z" fill="#FFDE82"/>
  <path d="M416 116L396 96l-20 20-20-20-20 20-20-20-20 20-20-20-20 20-20-20-20 20-20-20-20 20-20-20-20 20L80 116l-20-20 20-20 20 20 20-20 20 20 20-20 20 20 20-20 20 20 20-20 20 20 20-20 20 20 20-20 20 20 20-20 20 20 20-20 20 20 20-20L396 32l20 20-20 20 20 20-20 20 20 20-20 20 20 20-20 20 20 20-20 20 20 20-20 20 20 20-20 20 20 20-20 20 20 20-20 20 20 20-20 20 20-20-20 20-20-20 20-20-20 20-20-20 20-20-20 20-20-20 20-20-20 20-20-20 20-20-20 20-20-20 20-20-20 20-20-20 20-20-20 20-20-20 20-20-20 20-20-20z" fill="#FFDE82"/>
  <path d="M430.7 78.4L393.6 41.3c-6.8-6.8-17.7-6.8-24.5 0l-37.1 37.1c-6.8 6.8-6.8 17.7 0 24.5l37.1 37.1c6.8 6.8 17.7 6.8 24.5 0l37.1-37.1c6.8-6.8 6.8-17.7 0-24.5zM128 352l-51.2 51.2c-6.8 6.8-17.7 6.8-24.5 0L15.3 352c-6.8-6.8-6.8-17.7 0-24.5l51.2-51.2c6.8-6.8 17.7-6.8 24.5 0l37.1 37.1c6.8 6.8 6.8 17.7 0 24.5z" fill="#AAB8C2"/>
  <path d="M428.8 80.3l-37.1 37.1c-6.8 6.8-6.8 17.7 0 24.5l145 145c6.8 6.8 17.7 6.8 24.5 0l37.1-37.1c6.8-6.8 6.8-17.7 0-24.5l-145-145c-6.8-6.8-17.7-6.8-24.5 0z" fill="#AAB8C2"/>
</svg>